<svg width="15" height="15" viewBox="0 0 15 15" fill="none" xmlns="http://www.w3.org/2000/svg">
<path d="M9.26875 7.05626L6.61876 4.40627C6.56065 4.34769 6.49153 4.30119 6.41537 4.26946C6.3392 4.23773 6.25751 4.22139 6.17501 4.22139C6.0925 4.22139 6.01081 4.23773 5.93465 4.26946C5.85848 4.30119 5.78936 4.34769 5.73126 4.40627C5.61485 4.52337 5.54951 4.68178 5.54951 4.84689C5.54951 5.01201 5.61485 5.17042 5.73126 5.28752L7.94375 7.50001L5.73126 9.71251C5.61485 9.82961 5.54951 9.98802 5.54951 10.1531C5.54951 10.3183 5.61485 10.4767 5.73126 10.5938C5.78966 10.6517 5.85892 10.6975 5.93506 10.7286C6.01121 10.7597 6.09275 10.7755 6.17501 10.775C6.25726 10.7755 6.3388 10.7597 6.41495 10.7286C6.49109 10.6975 6.56035 10.6517 6.61876 10.5938L9.26875 7.94376C9.32733 7.88566 9.37383 7.81654 9.40556 7.74037C9.43729 7.66421 9.45363 7.58252 9.45363 7.50001C9.45363 7.41751 9.43729 7.33582 9.40556 7.25965C9.37383 7.18349 9.32733 7.11437 9.26875 7.05626Z" fill="white"/>
</svg>
