<svg width="21" height="14" viewBox="0 0 21 14" fill="none" xmlns="http://www.w3.org/2000/svg">
<path d="M8.211 11.5253L19.95 11.5253C20.2285 11.5253 20.4955 11.4147 20.6925 11.2178C20.8894 11.0209 21 10.7538 21 10.4753C21 10.1968 20.8894 9.92975 20.6925 9.73284C20.4955 9.53593 20.2285 9.4253 19.95 9.4253L8.211 9.4253C7.99028 8.81719 7.58769 8.29179 7.05792 7.92049C6.52816 7.54919 5.89692 7.35 5.24999 7.35C4.60307 7.35 3.97183 7.54919 3.44207 7.92049C2.91231 8.29179 2.50971 8.81719 2.28899 9.4253L1.04999 9.4253C0.771516 9.4253 0.504445 9.53593 0.30753 9.73284C0.110618 9.92975 -6.19901e-06 10.1968 -6.21118e-06 10.4753C-6.22336e-06 10.7538 0.110618 11.0209 0.30753 11.2178C0.504445 11.4147 0.771516 11.5253 1.04999 11.5253L2.28899 11.5253C2.50971 12.1334 2.91231 12.6588 3.44207 13.0301C3.97183 13.4014 4.60307 13.6006 5.24999 13.6006C5.89692 13.6006 6.52816 13.4014 7.05792 13.0301C7.58769 12.6588 7.99028 12.1334 8.211 11.5253ZM4.19999 10.4753C4.19999 10.2676 4.26158 10.0646 4.37695 9.89195C4.49233 9.71928 4.65632 9.5847 4.84818 9.50523C5.04004 9.42576 5.25116 9.40496 5.45484 9.44548C5.65852 9.48599 5.84561 9.586 5.99246 9.73284C6.1393 9.87969 6.23931 10.0668 6.27982 10.2705C6.32033 10.4741 6.29954 10.6853 6.22007 10.8771C6.1406 11.069 6.00602 11.233 5.83334 11.3483C5.66067 11.4637 5.45767 11.5253 5.24999 11.5253C4.97152 11.5253 4.70445 11.4147 4.50753 11.2178C4.31062 11.0209 4.19999 10.7538 4.19999 10.4753ZM16.611 4.1753L19.95 4.1753C20.2285 4.1753 20.4955 4.06468 20.6925 3.86776C20.8894 3.67085 21 3.40378 21 3.1253C21 2.84682 20.8894 2.57975 20.6925 2.38284C20.4955 2.18593 20.2285 2.0753 19.95 2.0753L16.611 2.0753C16.3903 1.46719 15.9877 0.941784 15.4579 0.570484C14.9282 0.199184 14.2969 -2.93001e-07 13.65 -3.21279e-07C13.0031 -3.49557e-07 12.3718 0.199184 11.8421 0.570484C11.3123 0.941784 10.9097 1.46719 10.689 2.0753L1.04999 2.0753C0.771517 2.0753 0.504445 2.18593 0.307531 2.38284C0.110618 2.57975 -5.87773e-06 2.84682 -5.88991e-06 3.1253C-5.90208e-06 3.40378 0.110618 3.67085 0.307531 3.86776C0.504445 4.06468 0.771517 4.1753 1.04999 4.1753L10.689 4.1753C10.9097 4.78341 11.3123 5.30882 11.8421 5.68012C12.3718 6.05142 13.0031 6.2506 13.65 6.2506C14.2969 6.2506 14.9282 6.05142 15.4579 5.68012C15.9877 5.30882 16.3903 4.78341 16.611 4.1753ZM12.6 3.1253C12.6 2.91763 12.6616 2.71462 12.777 2.54195C12.8923 2.36928 13.0563 2.2347 13.2482 2.15523C13.44 2.07576 13.6512 2.05496 13.8548 2.09548C14.0585 2.13599 14.2456 2.23599 14.3925 2.38284C14.5393 2.52968 14.6393 2.71678 14.6798 2.92046C14.7203 3.12414 14.6995 3.33526 14.6201 3.52712C14.5406 3.71898 14.406 3.88297 14.2333 3.99834C14.0607 4.11372 13.8577 4.1753 13.65 4.1753C13.3715 4.1753 13.1044 4.06468 12.9075 3.86776C12.7106 3.67085 12.6 3.40378 12.6 3.1253Z" fill="#03063A"/>
</svg>
