<svg width="24" height="24" viewBox="0 0 24 24" fill="none" xmlns="http://www.w3.org/2000/svg">
<path d="M17.1519 0.00192625C16.1204 0.0284193 15.1094 0.331631 14.202 0.886557C13.2947 1.44148 12.517 2.23223 11.9332 3.19358C11.3505 2.23269 10.5741 1.44205 9.66793 0.886802C8.7618 0.331559 7.75188 0.0276096 6.72142 0C4.89031 0.113649 3.16899 1.02304 1.91748 2.53797C0.665968 4.0529 -0.0188006 6.05603 0.00639259 8.12841V8.26324C-0.00213086 8.37218 -0.00213086 8.48175 0.00639259 8.59069C0.330214 19.512 11.9366 24 11.9366 24C11.9366 24 23.538 19.512 23.8669 8.59069C23.8737 8.48168 23.8737 8.37226 23.8669 8.26324V8.12841C23.8912 6.0565 23.2061 4.05412 21.9547 2.53971C20.7034 1.02529 18.9825 0.116032 17.1519 0.00192625Z" fill="#7AB8F1"/>
</svg>
