<svg width="8" height="9" viewBox="0 0 8 9" fill="none" xmlns="http://www.w3.org/2000/svg">
<path d="M6.49857 1.11498C5.78466 0.40107 4.81639 -7.52225e-09 3.80677 0C2.79715 7.52225e-09 1.82889 0.40107 1.11498 1.11498C0.40107 1.82889 7.52225e-09 2.79715 0 3.80677C-7.52225e-09 4.81639 0.40107 5.78466 1.11498 6.49857L3.47927 8.86735C3.52098 8.9094 3.5706 8.94278 3.62527 8.96555C3.67994 8.98833 3.73858 9.00005 3.7978 9.00005C3.85703 9.00005 3.91566 8.98833 3.97033 8.96555C4.025 8.94278 4.07462 8.9094 4.11633 8.86735L6.49857 6.47614C7.20949 5.7652 7.60889 4.80097 7.60889 3.79556C7.60889 2.79015 7.20949 1.82592 6.49857 1.11498ZM5.85702 5.83459L3.80677 7.89382L1.75652 5.83459C1.35147 5.42917 1.07571 4.91276 0.964101 4.35065C0.852489 3.78853 0.910038 3.20594 1.12947 2.67652C1.3489 2.14711 1.72037 1.69463 2.19691 1.3763C2.67346 1.05796 3.23368 0.888051 3.80677 0.888051C4.37986 0.888051 4.94009 1.05796 5.41663 1.3763C5.89318 1.69463 6.26464 2.14711 6.48408 2.67652C6.70351 3.20594 6.76106 3.78853 6.64945 4.35065C6.53784 4.91276 6.26207 5.42917 5.85702 5.83459ZM2.46088 2.42947C2.0987 2.79276 1.89533 3.28482 1.89533 3.7978C1.89533 4.31078 2.0987 4.80284 2.46088 5.16613C2.72995 5.43566 3.07263 5.61973 3.44592 5.69525C3.81921 5.77076 4.20648 5.73436 4.55916 5.59061C4.91184 5.44685 5.21422 5.20215 5.42835 4.88719C5.64248 4.57224 5.75883 4.20106 5.76281 3.82023C5.76483 3.56595 5.71585 3.31384 5.61876 3.07882C5.52167 2.84379 5.37843 2.63062 5.19753 2.4519C5.01973 2.27002 4.80771 2.12509 4.57368 2.02546C4.33964 1.92583 4.08822 1.87347 3.83387 1.87139C3.57952 1.8693 3.32727 1.91754 3.09164 2.01331C2.85601 2.10909 2.64164 2.25053 2.46088 2.42947ZM4.56496 4.52907C4.39495 4.70168 4.17026 4.80987 3.92931 4.83515C3.68835 4.86043 3.4461 4.80123 3.24397 4.66767C3.04183 4.5341 2.89237 4.33447 2.82113 4.10291C2.74989 3.87134 2.7613 3.62222 2.85341 3.39814C2.94552 3.17406 3.1126 2.98892 3.3261 2.8744C3.5396 2.75987 3.78625 2.72306 4.02388 2.77026C4.26152 2.81746 4.47538 2.94574 4.6289 3.13317C4.78242 3.32059 4.86607 3.55553 4.86555 3.7978C4.85902 4.07473 4.74284 4.33774 4.54253 4.52907H4.56496Z" fill="#5AA9EF"/>
</svg>
