<svg width="12" height="12" viewBox="0 0 12 12" fill="none" xmlns="http://www.w3.org/2000/svg">
<path fill-rule="evenodd" clip-rule="evenodd" d="M6.04864 1.68279L6.0504 0L11.9402 0.00627692L11.9339 5.89609L10.2511 5.89424L10.2544 2.87487L7.69289 5.43635C8.80202 7.07303 8.63164 9.31788 7.18175 10.7678C5.53883 12.4107 2.87513 12.4107 1.2322 10.7678C-0.410734 9.12487 -0.410734 6.46117 1.2322 4.81818C2.66063 3.38976 4.86075 3.20327 6.49062 4.25873L9.06336 1.68601L6.04864 1.68279ZM2.42212 6.00808C3.40787 5.02238 5.00606 5.02238 5.99184 6.00808C6.97762 6.99386 6.97762 8.59209 5.99184 9.57787C5.00606 10.5637 3.40787 10.5637 2.42212 9.57787C1.43636 8.59209 1.43636 6.99386 2.42212 6.00808Z" fill="#FCA93F"/>
</svg>
