<svg width="23" height="23" viewBox="0 0 23 23" fill="none" xmlns="http://www.w3.org/2000/svg">
<path d="M22.6456 16.8169C22.3976 16.4066 22.0965 15.9962 21.76 15.5612C20.9592 14.6345 20.4041 13.5466 20.1393 12.385L19.7673 7.54259C19.5459 3.79181 17.1812 0 12.4785 0H10.5124C5.80962 0 3.42725 3.79181 3.18813 7.53438L2.81616 12.385C2.55251 13.5569 1.99757 14.6557 1.19544 15.594C0.894325 16.0208 0.593208 16.4148 0.389511 16.7841C0.170897 17.056 0.0384966 17.3791 0.00720428 17.7169C-0.0240881 18.0547 0.0469695 18.394 0.212383 18.6964C0.405373 19.0141 0.689686 19.2758 1.03368 19.4526C1.37767 19.6294 1.76785 19.7143 2.16079 19.6977H8.99792C8.85227 20.0696 8.80546 20.4686 8.86147 20.8608C8.91748 21.253 9.07466 21.627 9.31969 21.951C9.56472 22.2749 9.89039 22.5394 10.2691 22.7221C10.6479 22.9047 11.0685 23 11.4954 23C11.9223 23 12.343 22.9047 12.7217 22.7221C13.1005 22.5394 13.4261 22.2749 13.6712 21.951C13.9162 21.627 14.0734 21.253 14.1294 20.8608C14.1854 20.4686 14.1386 20.0696 13.9929 19.6977H20.8301C21.2266 19.7111 21.6193 19.6213 21.9636 19.4385C22.308 19.2558 22.5902 18.9873 22.7785 18.6636C22.944 18.3748 23.0193 18.049 22.9958 17.7227C22.9723 17.3965 22.8511 17.0828 22.6456 16.8169ZM12.3811 20.5185C12.3811 20.6808 12.3291 20.8395 12.2318 20.9745C12.1345 21.1094 11.9962 21.2146 11.8343 21.2767C11.6725 21.3389 11.4944 21.3551 11.3226 21.3234C11.1508 21.2918 10.993 21.2136 10.8692 21.0988C10.7453 20.984 10.661 20.8378 10.6268 20.6786C10.5926 20.5194 10.6102 20.3544 10.6772 20.2044C10.7442 20.0544 10.8577 19.9262 11.0034 19.8361C11.149 19.7459 11.3203 19.6977 11.4954 19.6977C11.7303 19.6977 11.9556 19.7842 12.1217 19.9381C12.2878 20.092 12.3811 20.3008 12.3811 20.5185ZM21.2375 17.9167C21.2375 17.9824 21.0869 18.0563 20.8655 18.0563H2.16079C1.93938 18.0563 1.82425 17.9824 1.78882 17.9167C1.75339 17.8511 1.78882 17.7608 1.87738 17.6295C2.11651 17.2519 2.39105 16.858 2.67446 16.464C3.5601 15.2822 4.44574 13.9361 4.57858 12.4999L4.95941 7.64929C5.14539 4.87519 6.71297 1.64148 10.5124 1.64148H12.4785C16.2779 1.64148 17.8455 4.87519 18.0314 7.6575L18.4123 12.4999C18.5185 13.9526 19.4662 15.2822 20.3518 16.464C20.6352 16.858 20.9098 17.2848 21.1932 17.7033C21.2214 17.7315 21.2405 17.7664 21.2483 17.8042C21.2561 17.8419 21.2524 17.8809 21.2375 17.9167Z" fill="black"/>
</svg>
