<svg width="17" height="16" viewBox="0 0 17 16" fill="none" xmlns="http://www.w3.org/2000/svg">
<path fill-rule="evenodd" clip-rule="evenodd" d="M11.3272 1.88155C10.4574 1.03936 9.36235 0.44784 8.16472 0.17315C6.96709 -0.10154 5.71406 -0.0485673 4.54578 0.326144C3.3775 0.700856 2.34004 1.38253 1.54945 2.29492C0.758851 3.20731 0.246293 4.31443 0.0691034 5.49246C-0.108086 6.6705 0.0570794 7.87297 0.546127 8.96541C1.03517 10.0578 1.82882 10.9971 2.83829 11.6783C3.84776 12.3594 5.03325 12.7554 6.26216 12.8221C7.49107 12.8889 8.71494 12.6236 9.79689 12.056L13.772 15.7086C13.9794 15.8988 14.2553 16.0034 14.5411 15.9999C14.8269 15.9965 15.1 15.8854 15.3024 15.6902L16.3226 14.7034C16.5268 14.5048 16.6414 14.236 16.6414 13.9559C16.6414 13.6758 16.5268 13.407 16.3226 13.2084L12.4652 9.47071C13.1465 8.25605 13.4037 6.86101 13.1987 5.49345C12.9936 4.12589 12.3372 2.85901 11.3272 1.88155ZM9.35692 9.0452C8.81936 9.56537 8.13437 9.91967 7.38859 10.0633C6.64281 10.2069 5.86974 10.1334 5.16717 9.85202C4.46459 9.57066 3.86408 9.09411 3.44157 8.48263C3.01906 7.87115 2.79355 7.15222 2.79355 6.41676C2.79355 5.68131 3.01906 4.96238 3.44157 4.3509C3.86408 3.73942 4.46459 3.26286 5.16717 2.98151C5.86974 2.70015 6.64281 2.62662 7.38859 2.77024C8.13437 2.91386 8.81936 3.26816 9.35692 3.78833C10.0757 4.48645 10.4793 5.43154 10.4793 6.41676C10.4793 7.40198 10.0757 8.34708 9.35692 9.0452Z" fill="#5BA9EF" fill-opacity="0.8"/>
</svg>
