<svg width="14" height="7" viewBox="0 0 14 7" fill="none" xmlns="http://www.w3.org/2000/svg">
<path d="M13.6072 0.30489C13.3584 0.10961 13.0217 0 12.6709 0C12.32 0 11.9834 0.10961 11.7346 0.30489L6.96681 4.01651L2.26543 0.30489C2.0166 0.10961 1.67999 0 1.32913 0C0.978276 0 0.641673 0.10961 0.392842 0.30489C0.268364 0.40236 0.169562 0.518323 0.102138 0.64609C0.0347132 0.773857 0 0.910899 0 1.04931C0 1.18772 0.0347132 1.32476 0.102138 1.45253C0.169562 1.5803 0.268364 1.69626 0.392842 1.79373L6.02388 6.23929C6.14734 6.33756 6.29423 6.41556 6.45606 6.46879C6.6179 6.52202 6.79149 6.54942 6.96681 6.54942C7.14213 6.54942 7.31572 6.52202 7.47756 6.46879C7.6394 6.41556 7.78628 6.33756 7.90974 6.23929L13.6072 1.79373C13.7317 1.69626 13.8305 1.5803 13.8979 1.45253C13.9653 1.32476 14 1.18772 14 1.04931C14 0.910899 13.9653 0.773857 13.8979 0.64609C13.8305 0.518323 13.7317 0.40236 13.6072 0.30489Z" fill="#5AA9EF"/>
</svg>
