<svg width="24" height="24" viewBox="0 0 24 24" fill="none" xmlns="http://www.w3.org/2000/svg">
<path d="M0 20.484V18.7594C0.0361791 18.1311 0.265956 17.5236 0.664486 17.0024C1.06302 16.4812 1.61514 16.0662 2.26115 15.8023C8.46998 13.5976 15.402 13.5976 21.6109 15.8023C22.2569 16.0662 22.809 16.4812 23.2075 17.0024C23.6061 17.5236 23.8358 18.1311 23.872 18.7594V20.484C23.8718 20.9462 23.7684 21.4039 23.568 21.8308C23.3675 22.2578 23.0739 22.6456 22.7038 22.9721C22.3336 23.2986 21.8944 23.5575 21.411 23.7339C20.9277 23.9102 20.4098 24.0007 19.8869 24H3.98513C3.46224 24.0007 2.94431 23.9102 2.46098 23.7339C1.97764 23.5575 1.53836 23.2986 1.16826 22.9721C0.798152 22.6456 0.504477 22.2578 0.30402 21.8308C0.103563 21.4039 0.000254265 20.9462 0 20.484ZM11.936 2.50742e-07C10.6242 -0.000338824 9.34174 0.343223 8.25083 0.987236C7.15992 1.63125 6.30955 2.54678 5.80728 3.61805C5.305 4.68932 5.17339 5.8682 5.42907 7.00559C5.68476 8.14299 6.31626 9.18781 7.24371 10.0079C8.17116 10.828 9.3529 11.3866 10.6395 11.6129C11.926 11.8393 13.2597 11.7233 14.4716 11.2796C15.6836 10.8359 16.7196 10.0844 17.4484 9.12026C18.1772 8.15608 18.5663 7.02249 18.5663 5.86286C18.5665 5.09302 18.3952 4.33067 18.0621 3.61937C17.729 2.90806 17.2407 2.26173 16.625 1.7173C16.0093 1.17286 15.2783 0.740974 14.4737 0.446317C13.6692 0.15166 12.8069 2.17814e-07 11.936 2.50742e-07Z" fill="#7AB8F1"/>
</svg>
