<svg width="24" height="24" viewBox="0 0 24 24" fill="none" xmlns="http://www.w3.org/2000/svg">
<path fill-rule="evenodd" clip-rule="evenodd" d="M10.4031 0.149191C8.42397 0.475437 6.56019 1.32375 4.99252 2.61183C3.42485 3.89992 2.20652 5.58406 1.45569 7.50089C0.704868 9.41772 0.447038 11.5022 0.707213 13.5521C0.967388 15.602 1.73674 17.5477 2.94063 19.2005L0.288266 22.1371C0.145612 22.2949 0.0507791 22.4922 0.0154322 22.7049C-0.0199147 22.9175 0.00576596 23.1362 0.0893153 23.334C0.172865 23.5317 0.310639 23.7 0.48569 23.8181C0.660742 23.9362 0.865436 23.9989 1.07459 23.9986H11.7676C14.8238 24.0465 17.7814 22.8836 20.0313 20.7495C22.2811 18.6153 23.6518 15.6724 23.8611 12.5269C23.9359 10.7484 23.6263 8.97497 22.9549 7.33503C22.2834 5.6951 21.2668 4.22971 19.9786 3.04496C18.6905 1.86022 17.1631 0.985775 15.5069 0.484943C13.8508 -0.0158894 12.1075 -0.130575 10.4031 0.149191Z" fill="#7AB8F1"/>
</svg>
