<svg width="344" height="140" viewBox="0 0 344 140" fill="none" xmlns="http://www.w3.org/2000/svg">
<mask id="mask0_57_210" style="mask-type:alpha" maskUnits="userSpaceOnUse" x="0" y="0" width="344" height="140">
<rect width="343.731" height="140" rx="25.0631" fill="url(#paint0_linear_57_210)"/>
</mask>
<g mask="url(#mask0_57_210)">
<path d="M336.641 65.3626C337.443 79.2637 328.552 91.0931 316.783 91.7843C305.014 92.4755 294.824 81.7668 294.022 67.8657C293.221 53.9646 302.112 42.1352 313.881 41.444C325.65 40.7528 335.84 51.4616 336.641 65.3626Z" fill="#C9ECA0"/>
<path d="M287.344 69.3293C291.863 82.4947 286.488 96.2835 275.339 100.128C264.189 103.972 251.488 96.4152 246.969 83.2498C242.45 70.0844 247.825 56.2955 258.974 52.4515C270.123 48.6074 282.825 56.1639 287.344 69.3293Z" fill="#C9ECA0"/>
<path d="M247.523 103.501C256.043 110.781 257.948 122.547 251.777 129.78C245.607 137.013 233.698 136.974 225.178 129.694C216.658 122.414 214.753 110.648 220.923 103.415C227.094 96.1824 239.003 96.2207 247.523 103.501Z" fill="#C9ECA0"/>
<path d="M376.61 91.6919C375.313 103.21 366.359 111.664 356.609 110.574C346.859 109.484 340.006 99.2634 341.302 87.7452C342.598 76.2269 351.552 67.773 361.302 68.8628C371.052 69.9527 377.906 80.1736 376.61 91.6919Z" fill="#C9ECA0"/>
<path d="M357.433 127.545C375.918 148.835 361.793 185.68 338.308 196.931C314.822 208.182 277.815 195.644 272.386 168.288C268.314 137.599 268.026 110.153 291.511 98.902C314.996 87.6511 335.334 102.092 357.433 127.545Z" fill="#C9ECA0"/>
<path d="M62.4419 130.55C53.4546 134.922 43.1614 132.301 39.4514 124.696C35.7413 117.091 40.0193 107.381 49.0066 103.009C57.9938 98.6368 68.287 101.258 71.9971 108.863C75.7072 116.468 71.4291 126.178 62.4419 130.55Z" fill="#C9ECA0"/>
<path d="M46.1915 98.9892C38.7189 105.621 28.0993 105.871 22.4719 99.5472C16.8445 93.2237 18.3404 82.7215 25.8129 76.0899C33.2855 69.4582 43.9051 69.2084 49.5325 75.5319C55.1599 81.8554 53.6641 92.3576 46.1915 98.9892Z" fill="#C9ECA0"/>
<path d="M12.5508 82.0529C10.0824 89.7088 2.8149 94.2219 -3.68167 92.1331C-10.1782 90.0443 -13.4437 82.1448 -10.9754 74.4889C-8.50703 66.833 -1.23953 62.3199 5.25704 64.4087C11.7536 66.4974 15.0191 74.397 12.5508 82.0529Z" fill="#C9ECA0"/>
<path d="M56.0449 164.303C48.0565 166.627 39.9818 163.031 38.0095 156.271C36.0372 149.511 40.9142 142.147 48.9025 139.822C56.8909 137.498 64.9656 141.094 66.9379 147.854C68.9102 154.614 64.0332 161.978 56.0449 164.303Z" fill="#C9ECA0"/>
<path d="M26.995 161.506C17.9992 179.635 -10.3114 180.459 -24.2543 168.011C-38.1971 155.562 -40.1179 127.582 -23.4966 116.426C-4.29195 105.249 13.8098 97.4732 27.7527 109.922C41.6956 122.37 37.7496 139.833 26.995 161.506Z" fill="#C9ECA0"/>
<path d="M113.186 39.1373C115.285 32.0032 121.884 27.6548 127.926 29.4249C133.968 31.1949 137.165 38.4132 135.067 45.5473C132.968 52.6814 126.369 57.0298 120.327 55.2597C114.285 53.4897 111.088 46.2714 113.186 39.1373Z" fill="#C9ECA0"/>
<path d="M138.688 46.0131C138.785 38.5799 143.969 32.6136 150.267 32.6868C156.564 32.76 161.592 38.8451 161.495 46.2782C161.398 53.7113 156.215 59.6777 149.917 59.6044C143.619 59.5312 138.592 53.4462 138.688 46.0131Z" fill="#C9ECA0"/>
<path d="M164.86 35.9956C161.886 30.8017 163.045 24.543 167.449 22.0162C171.853 19.4895 177.835 21.6515 180.809 26.8454C183.783 32.0392 182.624 38.2979 178.22 40.8247C173.816 43.3514 167.835 41.1894 164.86 35.9956Z" fill="#C9ECA0"/>
<path d="M97.8263 18.7064C100.551 13.1479 106.574 10.5082 111.281 12.8106C115.987 15.113 117.594 21.4855 114.87 27.0441C112.146 32.6026 106.122 35.2423 101.416 32.9399C96.709 30.6375 95.1021 24.265 97.8263 18.7064Z" fill="#C9ECA0"/>
<path d="M113.92 4.12896C108.456 -9.90274 122.188 -25.8878 136.022 -27.3193C149.855 -28.7509 166.208 -15.7876 164.016 -1.05521C160.541 15.1088 155.748 28.9615 141.914 30.3931C128.081 31.8247 120.452 20.904 113.92 4.12896Z" fill="#C9ECA0"/>
</g>
<defs>
<linearGradient id="paint0_linear_57_210" x1="171.866" y1="0" x2="171.866" y2="140" gradientUnits="userSpaceOnUse">
<stop stop-color="#DFF2C9"/>
<stop offset="1" stop-color="#DFF2C9"/>
</linearGradient>
</defs>
</svg>
