<svg width="24" height="24" viewBox="0 0 24 24" fill="none" xmlns="http://www.w3.org/2000/svg">
<path d="M14.3232 18.1061V22.6965C14.3232 23.0422 14.449 23.3737 14.6728 23.6182C14.8966 23.8627 15.2002 24 15.5168 24H22.6784C22.995 24 23.2986 23.8627 23.5224 23.6182C23.7462 23.3737 23.872 23.0422 23.872 22.6965V11.1731C23.872 10.8992 23.8226 10.628 23.7267 10.3749C23.6307 10.1218 23.49 9.89191 23.3127 9.69822L13.2848 0.610636C13.1077 0.417056 12.8975 0.263486 12.666 0.158708C12.4346 0.0539306 12.1865 0 11.936 0C11.6855 0 11.4374 0.0539306 11.206 0.158708C10.9745 0.263486 10.7643 0.417056 10.5872 0.610636L0.559287 9.69822C0.381953 9.89191 0.24129 10.1218 0.145327 10.3749C0.0493641 10.628 -1.80905e-05 10.8992 4.97136e-09 11.1731L4.97136e-09 22.6965C4.97136e-09 23.0422 0.125754 23.3737 0.349597 23.6182C0.573441 23.8627 0.877038 24 1.1936 24H8.3552C8.67176 24 8.97536 23.8627 9.1992 23.6182C9.42305 23.3737 9.5488 23.0422 9.5488 22.6965V18.1061C9.5488 17.4147 9.80031 16.7515 10.248 16.2626C10.6957 15.7737 11.3029 15.499 11.936 15.499C12.5691 15.499 13.1763 15.7737 13.624 16.2626C14.0717 16.7515 14.3232 17.4147 14.3232 18.1061Z" fill="#79B9F2"/>
</svg>
