<svg width="24" height="31" viewBox="0 0 24 31" fill="none" xmlns="http://www.w3.org/2000/svg">
<path d="M8.37288 29.6295C5.81416 28.8741 3.597 27.3102 2.08198 25.1922C0.566963 23.0741 -0.156788 20.5265 0.0284325 17.9637C0.0521635 16.5454 0.374431 15.1463 0.97587 13.8505C1.57731 12.5548 2.44551 11.3891 3.5283 10.4235C3.69539 10.2745 3.89567 10.1642 4.1139 10.1007C4.33214 10.0372 4.56258 10.0224 4.78771 10.0572C5.60487 10.1843 5.33098 11.5653 5.19853 12.3516C5.09218 12.847 5.09008 13.3579 5.19236 13.8541C5.29464 14.3503 5.49923 14.8219 5.79412 15.2412C6.08902 15.6604 6.46825 16.0189 6.90956 16.2956C7.35086 16.5722 7.84532 16.7614 8.3639 16.852C12.8538 16.852 5.28384 8.25188 13.1411 0.194624C13.2415 0.0979171 13.3706 0.0333846 13.5107 0.00987983C13.6509 -0.0136249 13.7951 0.00504948 13.9237 0.0633412C14.0523 0.121633 14.159 0.216687 14.2291 0.335462C14.2992 0.454237 14.3293 0.590916 14.3152 0.726748C14.1356 5.03544 19.8962 9.45616 21.7505 11.9293C23.2196 13.8958 24.0066 16.2561 24 18.6757C23.9933 21.0954 23.1932 23.4516 21.7132 25.4106C20.2332 27.3695 18.1483 28.8318 15.7539 29.5902C13.3596 30.3485 10.7772 30.3645 8.37288 29.6359V29.6295Z" fill="#79B9F2"/>
</svg>
