<svg width="15" height="14" viewBox="0 0 15 14" fill="none" xmlns="http://www.w3.org/2000/svg">
<path fill-rule="evenodd" clip-rule="evenodd" d="M8.58654 13.6317C10.6816 12.2767 14.5942 9.27579 14.5942 5.76087C14.5942 4.23299 13.8254 2.76769 12.4569 1.68732C11.0885 0.606947 9.23241 0 7.2971 0C5.36179 0 3.50574 0.606947 2.13727 1.68732C0.7688 2.76769 0 4.23299 0 5.76087C0 9.27579 3.91265 12.2767 6.00766 13.6317C6.36973 13.8697 6.82597 14 7.2971 14C7.76823 14 8.22447 13.8697 8.58654 13.6317ZM7.2971 7.04084C7.7781 7.04084 8.24829 6.92824 8.64822 6.71727C9.04815 6.5063 9.35986 6.20645 9.54393 5.85562C9.72799 5.50479 9.77616 5.11875 9.68232 4.74632C9.58848 4.37388 9.35686 4.03178 9.01675 3.76327C8.67663 3.49476 8.2433 3.3119 7.77155 3.23782C7.2998 3.16374 6.81082 3.20176 6.36644 3.34708C5.92206 3.49239 5.54224 3.73848 5.27501 4.05421C5.00779 4.36995 4.86516 4.74115 4.86516 5.12088C4.86516 5.63009 5.12138 6.11844 5.57746 6.4785C6.03354 6.83856 6.65211 7.04084 7.2971 7.04084Z" fill="#79B9F2"/>
</svg>
